<svg width="7" height="22" viewBox="0 0 7 22" fill="none" xmlns="http://www.w3.org/2000/svg">
<path d="M3.716 21.252C2.804 21.252 2.048 20.976 1.448 20.424C0.872 19.848 0.584 19.14 0.584 18.3C0.584 17.46 0.872 16.764 1.448 16.212C2.048 15.636 2.804 15.348 3.716 15.348C4.604 15.348 5.336 15.636 5.912 16.212C6.488 16.764 6.776 17.46 6.776 18.3C6.776 19.14 6.488 19.848 5.912 20.424C5.336 20.976 4.604 21.252 3.716 21.252ZM3.716 6.348C2.804 6.348 2.048 6.072 1.448 5.52C0.872 4.944 0.584 4.236 0.584 3.396C0.584 2.556 0.872 1.86 1.448 1.308C2.048 0.731998 2.804 0.443999 3.716 0.443999C4.604 0.443999 5.336 0.731998 5.912 1.308C6.488 1.86 6.776 2.556 6.776 3.396C6.776 4.236 6.488 4.944 5.912 5.52C5.336 6.072 4.604 6.348 3.716 6.348Z" fill="#162C4E"/>
</svg>
