<svg width="415" height="27" viewBox="0 0 415 27" fill="none" xmlns="http://www.w3.org/2000/svg">
<path opacity="0.39" d="M6.30148 0.727999V15.848C6.30148 17.36 6.67348 18.524 7.41748 19.34C8.16149 20.156 9.25349 20.564 10.6935 20.564C12.1335 20.564 13.2375 20.156 14.0055 19.34C14.7735 18.524 15.1575 17.36 15.1575 15.848V0.727999H21.3135V15.812C21.3135 18.068 20.8335 19.976 19.8735 21.536C18.9135 23.096 17.6175 24.272 15.9855 25.064C14.3775 25.856 12.5775 26.252 10.5855 26.252C8.59348 26.252 6.80548 25.868 5.22148 25.1C3.66148 24.308 2.42548 23.132 1.51348 21.572C0.601485 19.988 0.145485 18.068 0.145485 15.812V0.727999H6.30148ZM48.2443 26H42.0883L31.7923 10.412V26H25.6363V0.727999H31.7923L42.0883 16.388V0.727999H48.2443V26ZM62.1746 0.727999C64.8386 0.727999 67.1666 1.256 69.1586 2.312C71.1506 3.368 72.6866 4.856 73.7666 6.776C74.8706 8.672 75.4226 10.868 75.4226 13.364C75.4226 15.836 74.8706 18.032 73.7666 19.952C72.6866 21.872 71.1386 23.36 69.1226 24.416C67.1306 25.472 64.8146 26 62.1746 26H52.7066V0.727999H62.1746ZM61.7786 20.672C64.1066 20.672 65.9186 20.036 67.2146 18.764C68.5106 17.492 69.1586 15.692 69.1586 13.364C69.1586 11.036 68.5106 9.224 67.2146 7.928C65.9186 6.632 64.1066 5.984 61.7786 5.984H58.8626V20.672H61.7786ZM85.0189 5.66V10.772H93.2629V15.524H85.0189V21.068H94.3429V26H78.8629V0.727999H94.3429V5.66H85.0189ZM111.227 26L105.971 16.46H104.495V26H98.3394V0.727999H108.671C110.663 0.727999 112.355 1.076 113.747 1.772C115.163 2.468 116.219 3.428 116.915 4.652C117.611 5.852 117.959 7.196 117.959 8.684C117.959 10.364 117.479 11.864 116.519 13.184C115.583 14.504 114.191 15.44 112.343 15.992L118.175 26H111.227ZM104.495 12.104H108.311C109.439 12.104 110.279 11.828 110.831 11.276C111.407 10.724 111.695 9.944 111.695 8.936C111.695 7.976 111.407 7.22 110.831 6.668C110.279 6.116 109.439 5.84 108.311 5.84H104.495V12.104ZM128.409 13.328C128.409 10.832 128.949 8.612 130.029 6.668C131.109 4.7 132.609 3.176 134.529 2.096C136.473 0.991999 138.669 0.439999 141.117 0.439999C144.117 0.439999 146.685 1.232 148.821 2.816C150.957 4.4 152.385 6.56 153.105 9.296H146.337C145.833 8.24 145.113 7.436 144.177 6.884C143.265 6.332 142.221 6.056 141.045 6.056C139.149 6.056 137.613 6.716 136.437 8.036C135.261 9.356 134.673 11.12 134.673 13.328C134.673 15.536 135.261 17.3 136.437 18.62C137.613 19.94 139.149 20.6 141.045 20.6C142.221 20.6 143.265 20.324 144.177 19.772C145.113 19.22 145.833 18.416 146.337 17.36H153.105C152.385 20.096 150.957 22.256 148.821 23.84C146.685 25.4 144.117 26.18 141.117 26.18C138.669 26.18 136.473 25.64 134.529 24.56C132.609 23.456 131.109 21.932 130.029 19.988C128.949 18.044 128.409 15.824 128.409 13.328ZM168.827 26.252C166.451 26.252 164.267 25.7 162.275 24.596C160.307 23.492 158.735 21.956 157.559 19.988C156.407 17.996 155.831 15.764 155.831 13.292C155.831 10.82 156.407 8.6 157.559 6.632C158.735 4.664 160.307 3.128 162.275 2.024C164.267 0.92 166.451 0.368 168.827 0.368C171.203 0.368 173.375 0.92 175.343 2.024C177.335 3.128 178.895 4.664 180.023 6.632C181.175 8.6 181.751 10.82 181.751 13.292C181.751 15.764 181.175 17.996 180.023 19.988C178.871 21.956 177.311 23.492 175.343 24.596C173.375 25.7 171.203 26.252 168.827 26.252ZM168.827 20.636C170.843 20.636 172.451 19.964 173.651 18.62C174.875 17.276 175.487 15.5 175.487 13.292C175.487 11.06 174.875 9.284 173.651 7.964C172.451 6.62 170.843 5.948 168.827 5.948C166.787 5.948 165.155 6.608 163.931 7.928C162.731 9.248 162.131 11.036 162.131 13.292C162.131 15.524 162.731 17.312 163.931 18.656C165.155 19.976 166.787 20.636 168.827 20.636ZM207.783 26H201.627L191.331 10.412V26H185.175V0.727999H191.331L201.627 16.388V0.727999H207.783V26ZM221.39 26.252C219.542 26.252 217.886 25.952 216.422 25.352C214.958 24.752 213.782 23.864 212.894 22.688C212.03 21.512 211.574 20.096 211.526 18.44H218.078C218.174 19.376 218.498 20.096 219.05 20.6C219.602 21.08 220.322 21.32 221.21 21.32C222.122 21.32 222.842 21.116 223.37 20.708C223.898 20.276 224.162 19.688 224.162 18.944C224.162 18.32 223.946 17.804 223.514 17.396C223.106 16.988 222.59 16.652 221.966 16.388C221.366 16.124 220.502 15.824 219.374 15.488C217.742 14.984 216.41 14.48 215.378 13.976C214.346 13.472 213.458 12.728 212.714 11.744C211.97 10.76 211.598 9.476 211.598 7.892C211.598 5.54 212.45 3.704 214.154 2.384C215.858 1.04 218.078 0.368 220.814 0.368C223.598 0.368 225.842 1.04 227.546 2.384C229.25 3.704 230.162 5.552 230.282 7.928H223.622C223.574 7.112 223.274 6.476 222.722 6.02C222.17 5.54 221.462 5.3 220.598 5.3C219.854 5.3 219.254 5.504 218.798 5.912C218.342 6.296 218.114 6.86 218.114 7.604C218.114 8.42 218.498 9.056 219.266 9.512C220.034 9.968 221.234 10.46 222.866 10.988C224.498 11.54 225.818 12.068 226.826 12.572C227.858 13.076 228.746 13.808 229.49 14.768C230.234 15.728 230.606 16.964 230.606 18.476C230.606 19.916 230.234 21.224 229.49 22.4C228.77 23.576 227.714 24.512 226.322 25.208C224.93 25.904 223.286 26.252 221.39 26.252ZM252.574 0.727999V5.66H245.878V26H239.722V5.66H233.026V0.727999H252.574ZM268.552 26L263.296 16.46H261.82V26H255.664V0.727999H265.996C267.988 0.727999 269.68 1.076 271.072 1.772C272.488 2.468 273.544 3.428 274.24 4.652C274.936 5.852 275.284 7.196 275.284 8.684C275.284 10.364 274.804 11.864 273.844 13.184C272.908 14.504 271.516 15.44 269.668 15.992L275.5 26H268.552ZM261.82 12.104H265.636C266.764 12.104 267.604 11.828 268.156 11.276C268.732 10.724 269.02 9.944 269.02 8.936C269.02 7.976 268.732 7.22 268.156 6.668C267.604 6.116 266.764 5.84 265.636 5.84H261.82V12.104ZM285.196 0.727999V15.848C285.196 17.36 285.568 18.524 286.312 19.34C287.056 20.156 288.148 20.564 289.588 20.564C291.028 20.564 292.132 20.156 292.9 19.34C293.668 18.524 294.052 17.36 294.052 15.848V0.727999H300.208V15.812C300.208 18.068 299.728 19.976 298.768 21.536C297.808 23.096 296.512 24.272 294.88 25.064C293.272 25.856 291.472 26.252 289.48 26.252C287.488 26.252 285.7 25.868 284.116 25.1C282.556 24.308 281.32 23.132 280.408 21.572C279.496 19.988 279.04 18.068 279.04 15.812V0.727999H285.196ZM303.487 13.328C303.487 10.832 304.027 8.612 305.107 6.668C306.187 4.7 307.687 3.176 309.607 2.096C311.551 0.991999 313.747 0.439999 316.195 0.439999C319.195 0.439999 321.763 1.232 323.899 2.816C326.035 4.4 327.463 6.56 328.183 9.296H321.415C320.911 8.24 320.191 7.436 319.255 6.884C318.343 6.332 317.299 6.056 316.123 6.056C314.227 6.056 312.691 6.716 311.515 8.036C310.339 9.356 309.751 11.12 309.751 13.328C309.751 15.536 310.339 17.3 311.515 18.62C312.691 19.94 314.227 20.6 316.123 20.6C317.299 20.6 318.343 20.324 319.255 19.772C320.191 19.22 320.911 18.416 321.415 17.36H328.183C327.463 20.096 326.035 22.256 323.899 23.84C321.763 25.4 319.195 26.18 316.195 26.18C313.747 26.18 311.551 25.64 309.607 24.56C307.687 23.456 306.187 21.932 305.107 19.988C304.027 18.044 303.487 15.824 303.487 13.328ZM350.133 0.727999V5.66H343.437V26H337.281V5.66H330.585V0.727999H350.133ZM359.378 0.727999V26H353.222V0.727999H359.378ZM375.791 26.252C373.415 26.252 371.231 25.7 369.239 24.596C367.271 23.492 365.699 21.956 364.523 19.988C363.371 17.996 362.795 15.764 362.795 13.292C362.795 10.82 363.371 8.6 364.523 6.632C365.699 4.664 367.271 3.128 369.239 2.024C371.231 0.92 373.415 0.368 375.791 0.368C378.167 0.368 380.339 0.92 382.307 2.024C384.299 3.128 385.859 4.664 386.987 6.632C388.139 8.6 388.715 10.82 388.715 13.292C388.715 15.764 388.139 17.996 386.987 19.988C385.835 21.956 384.275 23.492 382.307 24.596C380.339 25.7 378.167 26.252 375.791 26.252ZM375.791 20.636C377.807 20.636 379.415 19.964 380.615 18.62C381.839 17.276 382.451 15.5 382.451 13.292C382.451 11.06 381.839 9.284 380.615 7.964C379.415 6.62 377.807 5.948 375.791 5.948C373.751 5.948 372.119 6.608 370.895 7.928C369.695 9.248 369.095 11.036 369.095 13.292C369.095 15.524 369.695 17.312 370.895 18.656C372.119 19.976 373.751 20.636 375.791 20.636ZM414.748 26H408.592L398.296 10.412V26H392.14V0.727999H398.296L408.592 16.388V0.727999H414.748V26Z" fill="#162C4E"/>
</svg>
